# xmcd
#
# Track frame offsets:
#	150
#	30935
#	59796
#	88579
#	107724
#	153999
#	177047
#	196633
#	216039
#	242217
#	264744
#	284255
#	329717
#
# Disc length: 4635 seconds
#
# Revision: 0
# Processed by: cddbd v1.5.2PL0 Copyright (c) Steve Scherf et al.
# Submitted via: audiograbber 1.83.01
#
DISCID=b712190d
DTITLE=Bluespumpm - Dirty Thirty Open Hearts [CD1]
DYEAR=2006
DGENRE=Blues
TTITLE0=30 Years On The Road
TTITLE1=If You Know
TTITLE2=Zydeco Shoes
TTITLE3=Today
TTITLE4=Einladung
TTITLE5=Just A 4 Letter Word
TTITLE6=Polka Kaputto
TTITLE7=Factory
TTITLE8=Lost Paradise
TTITLE9=If You Don´t Do Nothin´
TTITLE10=It´s A Real Good Feeling-Barborhythm
TTITLE11=Blues For The Lost Days
TTITLE12=Flying Home
EXTD=
EXTT0=
EXTT1=
EXTT2=
EXTT3=
EXTT4=
EXTT5=
EXTT6=
EXTT7=
EXTT8=
EXTT9=
EXTT10=
EXTT11=
EXTT12=
PLAYORDER=
